<?xml version="1.0" encoding="UTF-8"?>
<svg width="205px" height="32px" viewBox="0 0 205 32" version="1.1" xmlns="http://www.w3.org/2000/svg" xmlns:xlink="http://www.w3.org/1999/xlink">
    <!-- Generator: Sketch 46.2 (44496) - http://www.bohemiancoding.com/sketch -->
    <title>logo-color@2x</title>
    <desc>Created with Sketch.</desc>
    <defs></defs>
    <g id="Page-1" stroke="none" stroke-width="1" fill="none" fill-rule="evenodd">
        <g id="WeRateDogs" transform="translate(-332.000000, -3484.000000)">
            <g id=":::-Footer-:::" transform="translate(333.000000, 3485.000000)">
                <g id="logo-color">
                    <path d="M64.504,6.96 L66.736,6.96 L61.288,24 L59.272,24 L55.336,10.032 L55.312,10.032 L51.304,24 L49.288,24 L43.84,6.96 L46.072,6.96 L50.272,20.568 L50.32,20.568 L54.16,6.96 L56.44,6.96 L60.28,20.616 L60.304,20.616 L64.504,6.96 Z M79.72,17.976 C79.72,18.1040006 79.7120001,18.271999 79.696,18.48 L79.672,18.768 L70.672,18.768 C70.8000006,19.8560054 71.2199964,20.7279967 71.932,21.384 C72.6440036,22.0400033 73.5279947,22.368 74.584,22.368 C75.9440068,22.368 77.0399958,21.8400053 77.872,20.784 L79.24,21.96 C78.1039943,23.4160073 76.5280101,24.144 74.512,24.144 C72.8319916,24.144 71.4440055,23.5880056 70.348,22.476 C69.2519945,21.3639944 68.704,19.9280088 68.704,18.168 C68.704,16.4239913 69.2359947,14.9880056 70.3,13.86 C71.3640053,12.7319944 72.695992,12.168 74.296,12.168 C75.9120081,12.168 77.219995,12.7119946 78.22,13.8 C79.220005,14.8880054 79.72,16.2799915 79.72,17.976 Z M74.392,13.968 C73.4639954,13.968 72.6680033,14.2519972 72.004,14.82 C71.3399967,15.3880028 70.9200009,16.167995 70.744,17.16 L77.8,17.16 C77.6399992,16.1839951 77.264003,15.4080029 76.672,14.832 C76.079997,14.2559971 75.3200046,13.968 74.392,13.968 Z M95.128,24 L92.608,24 L88.288,17.496 L85.072,17.496 L85.072,24 L82.984,24 L82.984,6.96 L89.032,6.96 C90.9200094,6.96 92.3319953,7.4399952 93.268,8.4 C94.2040047,9.3600048 94.672,10.639992 94.672,12.24 C94.672,13.648007 94.3160036,14.7759958 93.604,15.624 C92.8919964,16.4720042 91.8960064,17.0319986 90.616,17.304 L90.616,17.328 L95.128,24 Z M85.072,8.88 L85.072,15.576 L88.48,15.576 C89.8400068,15.576 90.8519967,15.2680031 91.516,14.652 C92.1800033,14.0359969 92.512,13.2160051 92.512,12.192 C92.512,11.1199946 92.1840033,10.3000028 91.528,9.732 C90.8719967,9.16399716 89.9520059,8.88 88.768,8.88 L85.072,8.88 Z M102.568,12.168 C105.512015,12.168 106.984,13.7999837 106.984,17.064 L106.984,24 L105.16,24 L105.088,22.584 L105.04,22.584 C104.031995,23.6240052 102.784007,24.144 101.296,24.144 C100.015994,24.144 99.0400034,23.8120033 98.368,23.148 C97.6959966,22.4839967 97.36,21.6240053 97.36,20.568 C97.36,19.4319943 97.7359962,18.5440032 98.488,17.904 C99.2400038,17.2639968 100.359993,16.9360001 101.848,16.92 L105.04,16.92 C104.976,14.9519902 104.104008,13.968 102.424,13.968 C101.239994,13.968 100.112005,14.2559971 99.04,14.832 L98.272,13.272 C99.5200062,12.5359963 100.951992,12.168 102.568,12.168 Z M101.68,22.368 C102.624005,22.368 103.419997,22.1240024 104.068,21.636 C104.716003,21.1479976 105.04,20.6240028 105.04,20.064 L105.04,18.552 L102.04,18.576 C100.231991,18.576 99.328,19.2159936 99.328,20.496 C99.328,21.0400027 99.527998,21.4879982 99.928,21.84 C100.328002,22.1920018 100.911996,22.368 101.68,22.368 Z M113.68,24.144 C111.64799,24.144 110.632,22.9360121 110.632,20.52 L110.632,13.992 L109.144,13.992 L109.144,12.312 L110.632,12.312 L110.632,8.328 L112.576,8.112 L112.576,12.312 L116.464,12.312 L116.464,13.992 L112.576,13.992 L112.576,20.232 C112.576,20.9520036 112.683999,21.4799983 112.9,21.816 C113.116001,22.1520017 113.487997,22.32 114.016,22.32 C114.624003,22.32 115.279996,22.120002 115.984,21.72 L116.512,23.424 C115.647996,23.9040024 114.704005,24.144 113.68,24.144 Z M129.4,17.976 C129.4,18.1040006 129.392,18.271999 129.376,18.48 L129.352,18.768 L120.352,18.768 C120.480001,19.8560054 120.899996,20.7279967 121.612,21.384 C122.324004,22.0400033 123.207995,22.368 124.264,22.368 C125.624007,22.368 126.719996,21.8400053 127.552,20.784 L128.92,21.96 C127.783994,23.4160073 126.20801,24.144 124.192,24.144 C122.511992,24.144 121.124005,23.5880056 120.028,22.476 C118.931995,21.3639944 118.384,19.9280088 118.384,18.168 C118.384,16.4239913 118.915995,14.9880056 119.98,13.86 C121.044005,12.7319944 122.375992,12.168 123.976,12.168 C125.592008,12.168 126.899995,12.7119946 127.9,13.8 C128.900005,14.8880054 129.4,16.2799915 129.4,17.976 Z M124.072,13.968 C123.143995,13.968 122.348003,14.2519972 121.684,14.82 C121.019997,15.3880028 120.600001,16.167995 120.424,17.16 L127.48,17.16 C127.319999,16.1839951 126.944003,15.4080029 126.352,14.832 C125.759997,14.2559971 125.000005,13.968 124.072,13.968 Z M132.664,24 L132.664,6.96 L137.776,6.96 C140.448013,6.96 142.587992,7.74799212 144.196,9.324 C145.804008,10.9000079 146.608,12.9599873 146.608,15.504 C146.608,18.0480127 145.820008,20.0999922 144.244,21.66 C142.667992,23.2200078 140.536013,24 137.848,24 L132.664,24 Z M134.752,22.104 L137.704,22.104 C139.73601,22.104 141.371994,21.4880062 142.612,20.256 C143.852006,19.0239938 144.472,17.4400097 144.472,15.504 C144.472,13.5359902 143.856006,11.9360062 142.624,10.704 C141.391994,9.47199384 139.78401,8.856 137.8,8.856 L134.752,8.856 L134.752,22.104 Z M155.2,24.144 C153.407991,24.144 151.952006,23.5760057 150.832,22.44 C149.711994,21.3039943 149.152,19.8800086 149.152,18.168 C149.152,16.4559914 149.711994,15.0280057 150.832,13.884 C151.952006,12.7399943 153.407991,12.168 155.2,12.168 C156.928009,12.168 158.359994,12.7279944 159.496,13.848 C160.632006,14.9680056 161.2,16.4079912 161.2,18.168 C161.2,19.9280088 160.632006,21.3639944 159.496,22.476 C158.359994,23.5880056 156.928009,24.144 155.2,24.144 Z M155.2,22.368 C156.336006,22.368 157.291996,21.972004 158.068,21.18 C158.844004,20.387996 159.232,19.3840061 159.232,18.168 C159.232,16.9359938 158.848004,15.9280039 158.08,15.144 C157.311996,14.3599961 156.352006,13.968 155.2,13.968 C153.999994,13.968 153.020004,14.371996 152.26,15.18 C151.499996,15.988004 151.12,16.9839941 151.12,18.168 C151.12,19.3520059 151.499996,20.347996 152.26,21.156 C153.020004,21.964004 153.999994,22.368 155.2,22.368 Z M173.08,12.312 L175,12.312 L175,23.112 C175,24.904009 174.532005,26.3159948 173.596,27.348 C172.659995,28.3800052 171.21601,28.896 169.264,28.896 C167.503991,28.896 165.920007,28.4720042 164.512,27.624 L164.968,25.824 C166.424007,26.6400041 167.823993,27.048 169.168,27.048 C170.432006,27.048 171.403997,26.7240032 172.084,26.076 C172.764003,25.4279968 173.104,24.608005 173.104,23.616 L173.104,21.984 L173.056,21.984 C172.079995,23.184006 170.760008,23.784 169.096,23.784 C167.495992,23.784 166.152005,23.2480054 165.064,22.176 C163.975995,21.1039946 163.432,19.7120086 163.432,18 C163.432,16.3359917 163.963995,14.9480056 165.028,13.836 C166.092005,12.7239944 167.415992,12.168 169,12.168 C170.648008,12.168 171.991995,12.7599941 173.032,13.944 L173.08,13.944 L173.08,12.312 Z M169.24,21.96 C170.408006,21.96 171.351996,21.5800038 172.072,20.82 C172.792004,20.0599962 173.152,19.0880059 173.152,17.904 C173.152,16.7519942 172.780004,15.8120036 172.036,15.084 C171.291996,14.3559964 170.360006,13.992 169.24,13.992 C168.135994,13.992 167.224004,14.3639963 166.504,15.108 C165.783996,15.8520037 165.424,16.7919943 165.424,17.928 C165.424,19.1440061 165.791996,20.1199963 166.528,20.856 C167.264004,21.5920037 168.167995,21.96 169.24,21.96 Z M182.152,24.144 C180.343991,24.144 178.816006,23.5840056 177.568,22.464 L178.576,21 C179.584005,21.9280046 180.775993,22.392 182.152,22.392 C182.824003,22.392 183.359998,22.2400015 183.76,21.936 C184.160002,21.6319985 184.36,21.2640022 184.36,20.832 C184.36,20.3839978 184.164002,20.0440012 183.772,19.812 C183.379998,19.5799988 182.696005,19.2960017 181.72,18.96 C181.656,18.9439999 181.608,18.9280001 181.576,18.912 C180.439994,18.511998 179.572003,18.0560026 178.972,17.544 C178.371997,17.0319974 178.072,16.2880049 178.072,15.312 C178.072,14.4159955 178.435996,13.668003 179.164,13.068 C179.892004,12.467997 180.815994,12.168 181.936,12.168 C183.424007,12.168 184.759994,12.6479952 185.944,13.608 L184.936,15.144 C184.007995,14.343996 182.976006,13.944 181.84,13.944 C181.375998,13.944 180.960002,14.0719987 180.592,14.328 C180.223998,14.5840013 180.04,14.911998 180.04,15.312 C180.04,15.7280021 180.219998,16.0639987 180.58,16.32 C180.940002,16.5760013 181.495996,16.8479986 182.248,17.136 C182.376001,17.1840002 182.611998,17.2719994 182.956,17.4 C183.300002,17.5280006 183.527999,17.6159998 183.64,17.664 C183.752001,17.7120002 183.943999,17.7959994 184.216,17.916 C184.488001,18.0360006 184.672,18.1239997 184.768,18.18 C184.864,18.2360003 185.011999,18.3279994 185.212,18.456 C185.412001,18.5840006 185.548,18.6959995 185.62,18.792 L185.908,19.176 C186.028001,19.3360008 186.112,19.4919992 186.16,19.644 C186.208,19.7960008 186.248,19.971999 186.28,20.172 C186.312,20.372001 186.328,20.5839989 186.328,20.808 C186.328,21.7680048 185.968004,22.5639968 185.248,23.196 C184.527996,23.8280032 183.496007,24.144 182.152,24.144 Z M189.248,24.096 C188.981332,24.096 188.760001,24.0080009 188.584,23.832 C188.407999,23.6559991 188.32,23.4453346 188.32,23.2 C188.32,22.9439987 188.407999,22.7280009 188.584,22.552 C188.760001,22.3759991 188.981332,22.288 189.248,22.288 C189.493335,22.288 189.706666,22.3759991 189.888,22.552 C190.069334,22.7280009 190.16,22.9439987 190.16,23.2 C190.16,23.4453346 190.069334,23.6559991 189.888,23.832 C189.706666,24.0080009 189.493335,24.096 189.248,24.096 Z M193.168,14.768 C192.901332,14.768 192.680001,14.6800009 192.504,14.504 C192.327999,14.3279991 192.24,14.1120013 192.24,13.856 C192.24,13.5999987 192.327999,13.3840009 192.504,13.208 C192.680001,13.0319991 192.901332,12.944 193.168,12.944 C193.424001,12.944 193.642666,13.0346658 193.824,13.216 C194.005334,13.3973342 194.096,13.6106654 194.096,13.856 C194.096,14.1120013 194.005334,14.3279991 193.824,14.504 C193.642666,14.6800009 193.424001,14.768 193.168,14.768 Z M192.512,24 L192.512,16.208 L193.808,16.208 L193.808,24 L192.512,24 Z M199.952,24.096 C198.757327,24.096 197.78667,23.7173371 197.04,22.96 C196.29333,22.2026629 195.92,21.253339 195.92,20.112 C195.92,18.970661 196.29333,18.0186705 197.04,17.256 C197.78667,16.4933295 198.757327,16.112 199.952,16.112 C201.104006,16.112 202.058663,16.4853296 202.816,17.232 C203.573337,17.9786704 203.952,18.9386608 203.952,20.112 C203.952,21.2853392 203.573337,22.242663 202.816,22.984 C202.058663,23.725337 201.104006,24.096 199.952,24.096 Z M199.952,22.912 C200.709337,22.912 201.346664,22.6480026 201.864,22.12 C202.381336,21.5919974 202.64,20.9226707 202.64,20.112 C202.64,19.2906626 202.384003,18.6186693 201.872,18.096 C201.359997,17.5733307 200.720004,17.312 199.952,17.312 C199.151996,17.312 198.498669,17.5813306 197.992,18.12 C197.485331,18.6586694 197.232,19.3226627 197.232,20.112 C197.232,20.9013373 197.485331,21.5653306 197.992,22.104 C198.498669,22.6426694 199.151996,22.912 199.952,22.912 Z" id="WeRateDogs.io" fill="#646464"></path>
                    <g id="dog" stroke="#5B5B5B" stroke-width="1.5">
                        <path d="M7.86823,4.63507 C6.33185,1.87177 3.38586,0 0,0 L0,10 C0,12.20911 1.79089,14 4,14" id="Shape"></path>
                        <path d="M22.13177,4.63507 C23.66815,1.87177 26.61414,0 30,0 L30,10 C30,12.20911 28.20911,14 26,14" id="Shape"></path>
                        <circle id="Oval" stroke-linecap="square" cx="10" cy="13" r="2"></circle>
                        <circle id="Oval" stroke-linecap="square" cx="20" cy="13" r="2"></circle>
                        <path d="M7.001,26.42103 C5.17635,25.02101 4,22.81817 4,20.34058 L4,10.70199 C4,7.00058 7.00058,4 10.70199,4 L19.29801,4 C22.99942,4 26,7.00058 26,10.70199 L26,20.34058 C26,22.81765 24.82414,25.02008 23.00014,26.42015" id="Shape"></path>
                        <path d="M19.00048,27.99985 C18.08828,29.21438 16.63589,30 15,30 C13.3631,30 11.90992,29.21341 10.99783,27.99759" id="Shape"></path>
                        <path d="M12.07874,19 L11,19 C8.79083,19 7,20.79083 7,23 L7,28 L11,28 C13.20917,28 15,26.20911 15,24 L15,22.39917" id="Shape"></path>
                        <path d="M17.92126,19 L19,19 C21.20917,19 23,20.79083 23,23 L23,28 L19,28 C16.79083,28 15,26.20911 15,24 L15,22.39917" id="Shape"></path>
                        <path d="M13.08062,18 L16.91937,18 C17.75788,18 18.22405,18.96993 17.70024,19.62469 L15.78087,22.02391 C15.38054,22.52432 14.61946,22.52432 14.21913,22.02391 L12.29976,19.62469 C11.77594,18.96993 12.24212,18 13.08062,18 Z" id="Shape" stroke-linecap="square"></path>
                    </g>
                </g>
            </g>
        </g>
    </g>
</svg>